<svg width="19" height="19" viewBox="0 0 19 19" fill="none" xmlns="http://www.w3.org/2000/svg">
<path d="M4.16406 8.67749C4.31325 8.67749 4.45632 8.73675 4.56181 8.84224C4.6673 8.94773 4.72656 9.09081 4.72656 9.23999C4.72656 10.4335 5.20067 11.5781 6.04458 12.422C6.8885 13.2659 8.03309 13.74 9.22656 13.74C10.42 13.74 11.5646 13.2659 12.4085 12.422C13.2525 11.5781 13.7266 10.4335 13.7266 9.23999C13.7266 9.09081 13.7858 8.94773 13.8913 8.84224C13.9968 8.73675 14.1399 8.67749 14.2891 8.67749C14.4382 8.67749 14.5813 8.73675 14.6868 8.84224C14.7923 8.94773 14.8516 9.09081 14.8516 9.23999C14.8516 12.1571 12.6314 14.5556 9.7885 14.8369L9.78906 14.865V16.5525C9.78906 16.7017 9.7298 16.8447 9.62431 16.9502C9.51882 17.0557 9.37575 17.115 9.22656 17.115C9.07738 17.115 8.9343 17.0557 8.82881 16.9502C8.72333 16.8447 8.66406 16.7017 8.66406 16.5525V14.865L8.66463 14.8369C5.82175 14.5556 3.60156 12.1577 3.60156 9.23999C3.60156 9.09081 3.66083 8.94773 3.76632 8.84224C3.8718 8.73675 4.01488 8.67749 4.16406 8.67749Z" fill="url(#paint0_linear_69_20793)"/>
<path d="M5.85156 4.73999C5.85156 3.84488 6.20714 2.98644 6.84008 2.3535C7.47301 1.72057 8.33146 1.36499 9.22656 1.36499C10.1217 1.36499 10.9801 1.72057 11.613 2.3535C12.246 2.98644 12.6016 3.84488 12.6016 4.73999V9.23999C12.6016 10.1351 12.246 10.9935 11.613 11.6265C10.9801 12.2594 10.1217 12.615 9.22656 12.615C8.33146 12.615 7.47301 12.2594 6.84008 11.6265C6.20714 10.9935 5.85156 10.1351 5.85156 9.23999V4.73999Z" fill="url(#paint1_linear_69_20793)"/>
<defs>
<linearGradient id="paint0_linear_69_20793" x1="3.60156" y1="5.05499" x2="8.79175" y2="18.0094" gradientUnits="userSpaceOnUse">
<stop stop-color="#CAD2D9"/>
<stop offset="1" stop-color="#70777D"/>
</linearGradient>
<linearGradient id="paint1_linear_69_20793" x1="4.16406" y1="-1.19157" x2="9.82788" y2="19.0551" gradientUnits="userSpaceOnUse">
<stop stop-color="#0FAFFF"/>
<stop offset="1" stop-color="#CC23D1"/>
</linearGradient>
</defs>
</svg>
